<svg xmlns="http://www.w3.org/2000/svg" version="1" width="183" height="236" viewBox="-1.25 -0.3 182.6 235.7"><path fill="#0d131a" d="M83 40l-12-1-14-3v-6l1-5q1-1 12 4l11 5-11-12L60 8l2-5 5-2q3 0 9 10 8 10 12 21l-2-15V1l4-1q3 0 4 2v19l-1 18-10 1M145 235l-9-3-6-4-8 3q-9 4-11 3t-1-6l1-10 37-13q8 4 15 13 8 8 5 11-1 2-10-1l-8-4-1 5q-2 5-4 6"/><path fill="#fff1ac" d="M149 219l-1 7q-2 5-4 6l-6-2q-6-3-9-8l-2-1 1 2 1 2-8 5q-6 2-8 1l-1-6 2-10 31-9q7 3 15 11 7 8 6 10-1 1-7-1l-9-4v-2-1h-1"/><path fill="#dcd096" d="M133 218l-13 3-7 1v-4l33-12 5 3-7 4-11 5"/><path fill="#0d131a" d="M82 216l6 11q2 6 0 7-3 1-11-3l-9-4-5 4q-5 4-8 4-2 0-4-4l-2-5-10 3H27q-2-2 7-11t17-12l31 10"/><path fill="#fff1ac" d="M84 224q3 6 2 7-2 1-7-2-6-2-9-5l1-2-1-1-1 1q-1 3-6 7l-8 3q-3 0-5-10v-1l-1 1v2l-11 2-8 1q0-2 7-9 9-8 18-12l24 8 5 10"/><path fill="#dcd096" d="M62 217l-9-5-4-3 3-2 28 9 3 6-7-1-14-4"/><path fill="#0d131a" d="M12 187q-7-6-10-11t-1-7q3-3 12 2l7 3q5 2 7 1l1 4 5 11 10 10 5 4q-19-2-36-17"/><path fill="#f9be00" d="M15 186L5 176q-4-5-3-6h5l7 3q11 7 17 6l15 22q-14-1-31-15"/><path fill="#d7a400" d="M23 192q-11-7-16-14 13 12 25 15 6 2 9 1l5 7q-10-1-23-9"/><path fill="#0d131a" d="M168 64q8 10 10 22 3 13-1 28-5 15-16 23l-26-32 6-9q5-11 3-21-2-9-7-18-4-7-3-8h4v-1l1-3h4l4 1v-2l2-2q3 0 5 3l5 10 9 9"/><path fill="#f9be00" d="M165 65q9 12 11 22 2 15-2 27t-14 21l-22-28 6-10q5-11 3-21-2-8-7-17l-3-7h4l-1-2 1-3h4l3 1v-2l1-2 4 3 3 8 3 4 6 6"/><path fill="#0d131a" d="M172 169q-1 23-22 37-21 13-52 13-32 0-53-15-20-15-20-36 0-12 6-26t16-26q10-13 23-20 14-9 29-9 15 1 29 10 12 8 23 21 10 13 15 27 6 14 6 24"/><path fill="#f9be00" d="M169 169q0 21-21 35-20 13-50 13-29-1-50-15-20-14-20-35 0-11 6-24 5-13 15-25t23-19q13-8 27-8t27 8q12 8 23 20 9 12 14 26 6 13 6 24"/><path fill="#d7a400" d="M106 92h4q13 3 25 13 11 9 19 22l1 2q0 15-15 26-14 11-34 11t-35-11q-14-11-14-26t14-26q15-11 35-11M91 210q19 2 38-2t28-12q-10 10-25 16-15 5-34 5-30-1-50-14-20-14-20-36 7 20 25 31 16 10 38 12"/><path fill="#0d131a" d="M91 36q28-2 49 11 19 13 20 32 2 19-15 34-18 14-46 15-28 2-48-10T29 87q-2-20 16-35t46-16"/><path fill="#f9be00" d="M91 38q26-2 46 10 19 12 21 31 2 18-16 33-17 14-43 15-26 2-46-10-19-13-21-31-2-19 16-33 17-14 43-15"/><path fill="#0d131a" d="M40 64l1 2 1-1h3v5l-1 10 2 19 2 16q2 14 0 24-1 7-5 11l-5 3-4 2q-7 2-12-1-8-4-11-15-3-10-1-26 1-13 7-25l6-12 2-10q1-5 3-5 2-1 3 1l1 2 3-2q2-2 4-1l1 3"/><path fill="#f9be00" d="M31 67l3-2q2-2 4-1l1 3v2l1-1h3v4l-1 7 1 14 2 20q2 15 1 23 0 5-4 11l-2 4q1 1 4-2l-1 2-4 3-6 2q4-1 3-3h-4q-10 1-16-8-5-10-3-31 1-13 6-26l6-12 2-9 2-4 2 4"/><path fill="#0d131a" d="M104 88q3-1 9 3l10 5 10 1 7 1 1 5q0 5 2 7l3 2 6 5q7 7 6 17 0 9-14 17-15 7-37 7-23-1-36-6-15-7-14-20l1-9 2-7-2-4v-4q1-3 10-4 11-1 15-3l11-8q7-5 10-5"/><path fill="#fff1ac" d="M105 90q3 0 8 3l8 5 10 1 7 2 1 5q0 4 2 5l8 6q7 6 7 15 0 7-8 12-6 5-15 8l-12 3h-18l-21-2-13-5-7-6q-3-4-2-11l1-9 1-6-1-4v-3q1-2 9-3 11-2 14-4l11-7q7-5 10-5"/><path fill="#0d131a" d="M95 99l3 1 2 3-1 2-1-1-2-2-2-2v-1h1M113 102l-1 1-1 1v-1l1-2 1-2h1v1l-1 2"/><path fill="#dcd096" d="M67 142q4 4 17 6 14 3 29 3 16 0 27-4 13-5 16-15 0 7-8 13-6 4-15 7l-11 3-19 1-21-3q-9-2-13-5l-7-6q-3-4-2-10v-7l1-5v8q1 9 6 14"/><path fill="#0d131a" d="M115 85q-5-5-5-11 1-6 8-9 6-3 14-1 8 1 13 6t5 10q-1 6-8 9-6 3-14 2-8-2-13-6"/><path fill="#fff" d="M116 84q-4-4-3-9 0-5 6-8t13-2q7 1 12 6 5 4 4 9t-7 7q-6 3-13 2t-12-5"/><path fill="#0d131a" d="M126 78h-2v-3l1-1 2 1v3h-1M88 88q-6 5-15 6-9 2-16-2-7-3-8-10-1-6 5-12 6-5 15-6 9-2 16 2 7 3 8 10 1 6-5 12"/><path fill="#fff" d="M87 86q-6 5-14 6t-14-2q-7-3-7-8-1-6 4-10 5-5 13-6t15 2q6 3 7 8 1 6-4 10"/><path fill="#0d131a" d="M74 80h-2v-2-1l1-1 2 1 1 1-1 2h-1"/></svg>