<svg xmlns="http://www.w3.org/2000/svg" version="1" width="299" height="417" viewBox="-0.55 -0.1 298.8 417.35"><path fill="#e6d4e7" d="M175 81h3l3 1q4 3 1 8-4 4-4 8l2 8q2 4-1 5-4 0-7-5-4-5-3-14 2-7 6-11M224 187q11 7 18 21 8 15 10 33 2 19-3 34-4 12-10 20-5 5-6 16l1 14q1 5 5 9l10 7 16 10 13 7q5-3 10 0t5 8q0 6-5 8h-9q0 4-4 6-5 2-12 1-7 0-13-2-5-2-7-5l-9-11q-8-8-11-9-5 2-9 1l-6-4-1-6q0-3 2-5l2-7 4-8q2-8 1-16-2-10-8-15-4-4-5-23l2-38q3-22 8-35 6-15 11-11"/><path fill="#e6d4e7" d="M226 346q1 4-3 8l-14-14q3-3 7-3l7 3q3 3 3 6M231 136l4 15q3 9 7 14l14 17 14 15 14 8q9 5 10 8l3 9v10l-5 9-6 6q-5 2-8 1-4-1-5-6h-5q-3-2-4-5l1-5 2-4-3-6-2-8-15-17-13-16-6-11-6-14q-2-7 3-14l6-6"/><path fill="#e6d4e7" d="M285 230l-7-11 5 5 3 3-1 3"/><path fill="#e6d4e7" d="M286 239q-1 3-4 4t-6-1q-4-1-4-5-3-3-4-8l-2-10 12-3v7l1 5 4 2q3 1 4 4l-1 5"/><path fill="#cea6cc" d="M183 87q-7 0-9 6-2 4-2 12-4-5-3-13 2-8 6-11l4 2 4 4M213 198q6-15 11-11l5 4q-3 16 0 40l4 21 3 20-9 17q-5 8-5 13-1 19-3 24l-2 4-1 7q-3 2-3 5-1 2 1 4 2 4 6 5l6-2 10 10 11 10q5 5 15 6 11 1 17-6l8 1 6-3q-1 5-6 7h-8q0 4-4 6-5 2-12 1-7 0-13-2-5-2-7-5l-9-11q-8-8-11-9-5 2-9 1l-6-4-1-6q0-3 2-5l2-7 4-8q2-8 1-16-2-10-8-15-4-4-5-23l2-38q3-22 8-35M234 181l-6-11-6-14q-2-6 2-13 4 18 17 37 9 15 17 22l7 7 3 6 2 8 4 10q0 5 5 7 4 2 6-1t0-7q-2-3-5-3-2 0-2-6v-7q4 0 9 5 4 5 4 10 0 3-6 11l-4 6q-7 1-8-6h-5q-3-2-4-5l1-5 2-4-3-6-2-8-15-17-13-16"/><path fill="#cea6cc" d="M286 227l-1 3-7-11 5 5 3 3"/><path fill="#0d131a" d="M181 83l-3-1h-3l-4 6-2 8q0 5 3 9l5 4 3 1v-4q-3-6-2-10 0-4 4-9 2-2 1-3l-2-1m-7-2l4-1 4 2 2 4-1 4q-6 5-2 15l1 5-2 1h-4l-5-5-3-7v-8q1-7 6-10M224 188q-3-2-6 2-4 6-8 22l-5 33q-2 18-1 31 1 14 5 17 6 5 8 15 1 9-2 17l-2 5q-3 4-2 8 2 0 1 1-4 2-5 6 0 3 2 5 2 4 6 5t8-2l2-1-1 2q4 0 12 10l8 10q2 3 7 4l12 3q7 0 12-2 3-2 4-5v-1 1l6-1q3 0 5-2 2-1 2-5l-1-4-3-3q-4-2-10 0h-2l-1 1v-1l1-1-12-7-15-9-2-2-9-6q-4-4-5-9v-15q1-10 5-16 6-8 10-18 5-16 3-34t-9-33q-7-14-18-21m-7 1q4-5 8-2 11 7 19 22 8 14 9 33l1 9q0 16-4 27-3 7-10 16-6 8-6 20l1 11q0 4 5 8l9 6 6 4 12 8 11 6 6-1 6 1 3 4q2 2 2 5 0 4-4 7-3 3-10 2-1 3-5 5-5 3-14 2-8 0-12-2-5-1-7-4l-10-12q-7-9-10-9-4 2-9 2-4-1-7-5l-1-5q-1-4 2-8v-3l1-4 3-3 1-4 2-11-2-11q-2-6-6-9-3-2-4-10l-1-18 1-21 5-32q4-17 9-24"/><path fill="#0d131a" d="M209 339q3-3 7-2 4 0 8 3 3 3 3 8t-3 7h-3v-1q4-2 4-6t-2-7l-7-3q-4 0-6 2l-1-1M270 364q5 0 8 3l3 4-1 5-1 1v-3l-2-6-8-3-7 1-2-1 2-1h8M230 138l-5 5q-3 5-3 9l1 4q2 7 9 20l3 5 6 8 10 11 11 13 1 1v3l2 5 2 2 1 6-2 1-1 5v1l3 4 5 1 1-1v1q1 4 3 5 4 2 8-1 3-1 6-5l5-9 1-5-1-8-2-6q-2-3-12-8l-12-7-14-15-14-18q-4-5-7-13l-5-14m0-2l2-1v1l4 15q3 8 7 13l14 18 14 15 11 5q9 5 13 11l2 5 1 9-1 5q-1 5-5 10-3 5-6 6-6 3-10 1l-4-6q-3 1-5-1-3-1-4-5l1-5 2-4v-1l-3-5-2-6v-2l-1-1-4-4-7-7-11-13-7-10-5-10-5-13-1-4q0-6 5-11l5-5"/><path fill="#0d131a" d="M286 226h1v1l-1 3v1l-2-1 1-2v-1l-6-6h-1l1-3 2 3 5 5"/><path fill="#0d131a" d="M287 232l1 3-2 6-4 3h-4l-3-1q-3-2-4-6l-3-5-2-7-1-7v-1l1 2 2 6 1 6q1 3 4 5 0 4 3 5 2 2 5 1l4-3 1-5-2-3-4-2h-1v-1q-2-4-2-11l1-3q1-1 1 2v7l1 5q5 1 7 4"/><path fill="#e6d4e7" d="M206 127q12 11 13 16 2 6 1 12l-1 8q-1 10 6 23 15 24 18 44t-6 41q-3 7-13 14t-24 11q-33 10-65-5-31-15-40-57-5-24-2-66 2-32-2-48-5-22-22-34-9-7-17-6t-15 7q-6 7-9 17-4 11-4 23 0 30 13 51l13 18 15 21q7 11 7 20 1 8-4 12-4 4-11 4-7-1-15-6-14-11-26-38-13-31-14-62-2-30 14-52 16-24 42-27 23-3 41 11 15 11 21 28l4 16 4 22q6 31 12 42 2 4 6 7 4 4 9 5 11 2 18-16 2-7-2-24l-8-22q-9-25-2-32 5-5 19 3 13 7 26 19"/><path fill="#cea6cc" d="M206 127q12 11 13 16 2 7 1 13l-1 9q-6-3-17-1-10 3-15 7l-6 8-4 9q-4 12-10 15-7 2-9-4 9 0 15-16 2-7-2-24l-8-22q-9-25-2-32 5-5 19 3 13 7 26 19"/><path fill="#9b7fa6" d="M69 86q-9-7-17-6t-15 7q-6 7-9 17-4 11-4 23 0 30 13 51l13 18 15 21q7 11 7 20 1 8-4 12-4 4-11 4-7-1-15-6-14-11-26-38-13-31-14-62-2-30 14-52 16-24 42-27 23-3 41 11 15 11 21 28l4 16 4 22q6 31 12 42 4 6 9 10 8 4 14 1l2 17q1 10 4 18l3 5q3 6 7 9 10 8 14-17 7-36 23-37 8 0 19 11 9 18 9 34 1 17-7 33-4 8-14 15-10 8-24 11-32 9-64-6-31-15-40-57-5-24-2-66 2-32-2-48-5-22-22-34"/><path fill="#836b8d" d="M140 187q4 6 10 10 7 4 13 1l-1 6-1 6q-13-4-18-9-4-5-3-14"/><path fill="#836b8d" d="M69 86q-9-7-17-6t-15 7q-6 7-9 17-4 11-4 23 0 30 13 51l13 18 15 21 5 9q2 5 2 12-4 8-17-2-9-8-17-19-10-17-17-42-9-33-5-61 2-16 10-24 9-10 25-12 25-3 41 26 8 15 10 49l1 48q0 20 11 42 13 26 32 36 21 11 45 9 27-1 46-17-4 8-14 15-10 8-24 11-32 9-64-6-31-15-40-57-5-24-2-66 2-32-2-48-5-22-22-34"/><path fill="#e6d4e7" d="M182 87l19 8 2 6q2 5 6 6l5-2 8-2q5-1 9 5l3 11q2 7-4 23-5 15-10 18h-2l-3-2q-4-4-9-1l-6 4q-5 3-8 2-4 0-9-6-7-7-8-16 2-7 0-16-1-9-5-13-4-3-8 0-3 2-6 8-3-10 0-15 1-4 6-8 4-2 10 0l11 4q2-3 1-8l-2-6"/><path fill="#cea6cc" d="M162 97q4-2 10 0l11 4q2-3 1-8l-2-6 20 4v8q-2 9-12 6l-7-3-8-3q-6-1-7 1-2 2 4 7l4 9q3 7 3 16 1 7 5 16 5 9 9 10t7-1l5-3q1-2 5-2t7 2l3 3h4l-4 3h-2l-3-2q-4-4-9-1l-6 4q-5 3-8 2-4 0-9-6-7-7-8-16 2-7 0-16-1-9-5-13-4-3-8 0-3 2-6 8-3-10 0-15 1-4 6-8"/><path fill="#0d131a" d="M163 142l-1-5-5-21 2-1q0 8 5 21l1 5 8 22q3 13 0 21-6 15-15 16-5 0-11-4-5-4-8-9-4-8-8-24l-6-29-3-15-3-12q-6-16-20-28-18-14-41-11-13 2-23 9-11 7-19 18-7 11-11 24-3 13-3 28 2 32 15 63 12 26 26 36 6 5 13 6t11-3q5-4 4-13-1-8-7-19l-8-11-7-11q-13-17-18-27-7-17-8-41 0-16 6-28 5-12 14-17-10 3-6 1l10-4h11q6 1 12 6 17 13 22 35 3 16 1 48-2 41 2 65 9 42 40 57 16 8 32 9 14 1 34-4 11-2 21-10 11-7 15-16 9-20 6-39-3-20-18-44-6-9-7-15l1-11h3q-2 6-1 12t6 14q16 26 19 45 3 21-8 42-5 7-14 15-10 7-21 10-20 5-36 3-16-1-33-9-32-15-41-58-5-24-2-65 2-32-2-47-4-23-21-35-6-5-10-6H48q-22 12-22 49 0 22 8 39l8 14 10 13 8 11 9 11q6 11 6 20t-5 14q-5 4-13 3t-15-6q-16-12-27-37-13-29-15-64-1-15 3-29 3-14 11-25 7-11 18-18t24-9q24-4 42 9 16 11 23 29l7 29 5 28q4 16 8 24l7 7q5 4 10 4 4 0 7-3t6-10q3-8-1-21l-7-21"/><path fill="#0d131a" d="M212 193q7-2 14 1 4 2 7 6l3 5q1 3-1-1-3-4-8-7-7-4-14-3-6 2-11 11-5 10-8 25-3 20-11 19-4 0-10-7l-5-9-3-13-2-12-1-10 1-1 2 11 1 12 4 12v1q0 2 5 8 5 7 9 7 6 0 9-18 3-16 8-26 5-9 11-11M203 122l2 5v7l-2 7-2 7-1 3-1-3 3-9 1-6-1-11-1-2 2 2M212 122q1-3 1 1v7l1 6 2 3 1 4 1 6v1l-1-2-1-5-2-6q-2-1-2-6v-9"/><path fill="#e6d4e7" d="M245 11q5 5 4 6l-4 9-3 10 2 7v6l-4 5-3 4 1 11q0 8-2 11l-6 6-5 3-3 8-5 3-8 1h-7l-3-1-1-1-1 1-3-1-4-5-3-4-3-3-11-6q-9-4-11-7-3-4-3-11-1-6 2-13 6-16 4-26l-5-10-4-6V4l3-2 9-1 7 1 3 7 5 7q6-3 18-4 16 0 24 6l6-2 3-4 1-4q1-2 3-2l7 5"/><path fill="#cea6cc" d="M162 6l3 7q6 10 5 15l-2 19q-2 13-1 18 1 7 8 13l14 10 10 8 6 6-5-1-2-2-1 1-3-1-4-5-3-4h-3l-1-2-1-2-11-5q-7-4-9-7-3-4-3-11-1-6 2-13 6-16 4-26l-5-10-4-6V4l3-2 3-1v5M234 12l1-4q1-2 3-2l5 3q-2-1-3 1l-2 3q-3 6-8 8-1 1-4-2l-1-1 6-2 3-4"/><path fill="#fff" d="M235 60v5l-2 8-2 4-5 3q-1-10 9-20"/><path fill="#dbdcdc" d="M235 64l-7 7 3-5 4-6v4"/><path fill="#fff" d="M183 52q3 0 8 8 6 9 6 16-2 2-9-1-7-4-8-7-2-3 0-10t3-6"/><path fill="#dbdcdc" d="M183 52q3 0 7 8 5 8 7 15-2-6-7-11l-9-9q1-4 2-3"/><path fill="#a586bc" d="M185 53l3 4 4 7q0 5-2 8-1 3-4 1t-3-8l2-12"/><path fill="#8f75a3" d="M192 64v3l-5-5-3-4 1-5 3 4 4 7"/><path fill="#a586bc" d="M232 64l-1 9q-2 5-5 3l4-9 2-3"/><path fill="#8f75a3" d="M232 67l-4 3 3-5 1-1v3"/><path fill="#0d131a" d="M205 60v-2l1 1 1 7-3 8v1-1l1-8v-6M179 65l1-9 2-6 1 1-2 7-1 7-1 1v-1M181 70l-1-1 2 1 4 3 6 3 2 1h-2l-6-3q-3-1-5-4M206 97v-1h1l1 1 1 1h-1l-2-1M234 70l1-9v-2h1v5l-1 6-1 1v-1M226 80l3-2 2-2q1-2 2-1l-1 1-3 3-3 2v-1"/><path fill="#0d131a" d="M230 72l2-7q-4 6-5 11h1l2-4m2-9l1-1v2l-1 7q-1 5-4 6l-2-1q0-4 3-9l3-4M179 48h3l8 10q6 9 7 17 1 3-1-1-3-9-8-17l-7-7-2-2"/><path fill="#0d131a" d="M189 65v3l-2 1-1-1-1-3 1-4 1-1 2 1v4M230 71l-1 3-1 1v-4l1-3 1-1v4"/><path fill="#fff" d="M187 62v2h-2l-1-2 1-2h2v2"/><path fill="#0d131a" d="M247 19q2-2 0-5l-4-4-5-3q-2 0-3 4v1l-3 4q-2 2-5 2l4 5-2-1-2-2-4-2q-9-5-23-5l-16 3 1 1 2 2 1 1h-1q-3-1-5-4-4-5-5-9l-3-4-6-1h-9l-3 3 1 2 1 3 4 6 3 8q2 5 0 13l-4 14q-3 8-2 14 0 4 3 9 3 4 20 11l2 3 1 13 3 1 3 3h-2l-6-3q-15-7-23-2-4 3-5 7v10l4-4q3-3 6-3 3-1 5 1 3 3 5 9l2 12-1 5v4q0 7 7 14 6 6 9 7l5-1 5-3 4-2q4-2 6-1l4 2 3 2 3-1 8-18 4-15q0-6-3-14-4-8-9-8l-5 2-4 1-6 2h-2l2-1-4-4-5-3h-3l-3-2-2-4-3-3-1-2h1l4 4 3 4 3 2-1-2q-2-4-4-4l-1-1h1l3 1 2 3q3 5 8 5 4 1 12-2 3-1 5-4l2-6 2-4v3q7-3 10-9l1-10V59q-10 10-11 21v2l-1-2q0-8 7-17l6-7 5-7v-7l-2-6-2-3-1-2 3 3 3-10 3-5m3-4v3l-2 3-3 6-2 9 3 9-1 4-3 5-3 3v12q0 8-2 11-1 4-4 6l-7 4-4 7q-1 2-5 3l-12 3 4 3 1-1 6-2 7-1q6-1 10 9 4 9 2 17l-6 20-6 10q-2 4-4 3l-3-2-3-2-2-1-5 1-3 2-5 4-6 1q-3 0-10-7-6-6-8-12v-4l1-4q1-5-1-13t-5-12h-2l-3-1-6 5-4 5q-3-7-2-13t5-9q8-7 26 1v-6l-1-8q-7-1-13-5l-10-7q-3-4-3-9l3-14 4-15q2-8 1-12l-3-7-4-6-2-3-1-4 2-2 2-1 9-1q7 0 9 2l3 5q1 5 4 8 7-3 17-4 15 0 26 6l4-2 3-2 1-4q1-4 4-3 3 0 6 3l6 6"/><path fill="#e6d4e7" d="M166 193q7-5 13 0 5 4 8 15 4 11 4 25t-3 28q-2 8-9 17l-5 8-7 9q-18 29-19 60-1 15 2 32 9 5 6 14-2 6-10 8-7 1-12-3h-5l-6 2q-2 5-10 6t-13-5q-5-5-2-12 2-7 9-8l9-21 7-15q5-8 9-29 4-20 2-28 0-3-4-10-3-7-4-16-4-19 10-44 12-23 30-33"/><path fill="#cea6cc" d="M151 205q-8 21-10 39-2 17 1 41 2 16 0 26-2 11-12 36l-9 29q-4 15-6 16-6 1-9 6-5 7 2 16-5-1-8-5-5-6-4-11 2-5 12-12l6-13 9-20q5-8 9-29 4-20 2-28 0-3-4-10-3-7-4-16-3-14 5-33 7-18 20-32M153 406q-4 3-10 3-5 0-9-3h-5l-6 2v-3l-1-4q1-2 6-2h6q2 4 7 6t12 1"/><path fill="#e6d4e7" d="M147 361l4 2 3 5q2 7-5 13l-2-20"/><path fill="#cea6cc" d="M149 381v-4l5-3q-1 4-5 7"/><path fill="#0d131a" d="M178 193q-5-4-12 0-17 11-30 34-13 24-10 43l3 10 3 7 2 4 1 5q1 8-3 28-3 21-8 29l-6 13-5 11-5 10-5 4q-4 3-5 6v6q0 4 2 6 5 5 13 4l6-2 3-4v-6l2 3v2l9-1-2-3h1l3 3 5 3h6q8-2 9-7v-7q-1-4-5-6l-6-1h-2l4-1h3q-5-24 0-47 4-23 18-45l5-8 5-6 6-9 4-10q5-21 2-41-3-21-11-27m-13-1q8-5 14 0 6 4 9 15 4 10 4 26l-1 21q-2 17-11 26l-6 7-6 8q-9 17-14 33-5 18-5 34v12l2 12v1q7 4 8 10 0 6-4 9-3 3-8 3-8 2-13-3l-5 1-5 1-4 5-6 2q-10 2-16-4l-3-5q-1-5 1-9t5-6l5-5q2-1 4-7l4-10 9-20q4-11 7-26 3-16 3-27l-2-5-4-8q-6-13-5-21 2-20 15-41 12-19 28-29"/><path fill="#0d131a" d="M147 361l1-1 4 2 3 5v7q-1 5-6 8v-2l4-6v-6l-2-4-4-3"/><path fill="#e6d4e7" d="M169 137l-1 1q-6 4-16 17t-12 19q-3 6-7 26l-5 25q1 4 5 7l7 6 2 7 1 7 2 5v4q-1 3-4 4-4 2-7 1l1 5q0 3-3 6-3 2-7 2-4-1-5-4-4-2-9-8-4 8-14 4-3-1-5-6l-3-8-2-7q0-3 2-5l6-8 7-12 11-28 12-30q2-6 11-19l14-19q2-6 7-11 5-6 8-7 3 0 4 2 2 3 3 11 1 6-1 11l-2 2m-65 109q-4 3-3 4l1 4h3l5 3-1-9-1-4-4 2m20 8q-1 6 1 8h3l3 1-1-4q0-4 3-6l-5-5h-2l-2 6"/><path fill="#cea6cc" d="M173 129q-1-5-5-8-3-2-7 0-4 3-16 20-13 18-16 26l-8 31q-5 24-2 30l3 7 6 4 8 10q2 6 0 7l-3 3-1 6q-2-2-2-6t2-6v-1l-2-2-4-3-4-1q-2 0-4 3-2 4-2 10v7l4 4 5 5 7 2q-6 2-11 0l-6-5-3-5-2-5v-10l-1-5-2-5q-1-2-5 2l-4 5q-1 1 1 5l2 6h3q2-1 5 2l2 5-1 2-4 3q-4 1-8-1t-5-5l-3-7-2-8q-1-5 5-11l5-7 4-7 5-15 7-18 6-15 6-14 9-14 10-13 7-12q4-9 6-10 2-3 6-4 3 0 5 2 2 1 3 5 2 6 1 11"/><path fill="#0d131a" d="M168 137h2l-1 1q-7 5-17 18-9 12-12 19l-7 26-4 24q0 3 3 5l5 4 4 4q2 1 2 4v6l1 4 2 5v4l-1 3-2 2q-4 2-8 1l1 6-3 4q-2 2-6 2-5 0-8-3l-3-2-5-6q-2 4-6 5-3 1-8-1-3-1-6-6l-3-10-2-7 2-5 7-9 6-10 11-29 12-29 13-21 12-18 6-11q5-7 10-7h1l2 1q1 0 0 0h-3q-5 2-9 9l-6 10-12 17-13 21-11 29-11 28q-2 7-12 20l-2 4v6l4 10q2 4 5 5 3 2 7 1t6-4h1l8 8 6 2 5-1q3-2 3-5l-1-5 1-1q4 1 7-1l3-3q1-4-1-8l-1-5-1-6-2-4-4-4-5-4q-3-2-3-5l4-25q5-20 8-26 3-7 12-19 9-13 17-18"/><path fill="#0d131a" d="M102 250l1 3 2 1 4 1-2-10-3 3-2 2m5-7l1-3 1 3v2l1 5v10l-1-3q-2-2-6-2l-1 2-1-1v-4l-1-2 2-3 5-4M127 249q-2 2-2 6-1 4 1 6h3q-1-5 3-8l-3-3-2-1m7 4v2q-1 1-1-1-2 2-2 5l1 3-1 1-3-1h-2l1 2-3-3-1-3v-4l2-5 2-2 3 1 4 5"/><path fill="#0d131a" d="M130 260l1 1 2 3q1 2 4 2h2l-1 1h-4l-3-2-1-3v-2M110 256v5l1 4 3 4v2l-3-3-2-3v-10-3q1-1 1 4"/></svg>